<svg xmlns="http://www.w3.org/2000/svg" xmlns:xlink="http://www.w3.org/1999/xlink" viewBox="0 0 1920 1080">
  <defs>
    <linearGradient id="grad-bg" x1="0" x2="1" y1="0" y2="1">
      <stop offset="0%" style="stop-color:#00334e;stop-opacity:1" />
      <stop offset="100%" style="stop-color:#005b90;stop-opacity:0.9" />
    </linearGradient>
    <radialGradient id="grad-orb" cx="0.5" cy="0.5" r="0.5">
      <stop offset="0%" style="stop-color:#e67e22;stop-opacity:0.4" />
      <stop offset="100%" style="stop-color:#e67e22;stop-opacity:0" />
    </radialGradient>
  </defs>
  
  <rect width="100%" height="100%" fill="url(#grad-bg)"/>
  <g opacity="0.1">
    <path d="M0 100 C200 250 400 150 600 300 T1200 200 T1920 300 V1080 H0 Z" fill="#fff"/>
    <path d="M0 300 C200 450 400 350 600 500 T1200 400 T1920 500 V1080 H0 Z" fill="#fff"/>
  </g>
  
  <g transform="translate(960,540)" opacity="0.2">
    <circle cx="0" cy="0" r="400" fill="url(#grad-orb)"/>
  </g>
  
  <g transform="translate(960,540)">
    <g id="contact-grid" opacity="0.2">
      <line x1="-800" y1="0" x2="800" y2="0" stroke="#fff" stroke-width="1"/>
      <line x1="0" y1="-450" x2="0" y2="450" stroke="#fff" stroke-width="1"/>
      
      <g transform="rotate(30)">
        <line x1="-800" y1="0" x2="800" y2="0" stroke="#fff" stroke-width="1" stroke-dasharray="10,10"/>
      </g>
      
      <g transform="rotate(60)">
        <line x1="-800" y1="0" x2="800" y2="0" stroke="#fff" stroke-width="1" stroke-dasharray="10,10"/>
      </g>
      
      <g transform="rotate(90)">
        <line x1="-800" y1="0" x2="800" y2="0" stroke="#fff" stroke-width="1"/>
      </g>
      
      <circle cx="0" cy="0" r="300" stroke="#fff" stroke-width="1" fill="none"/>
      <circle cx="0" cy="0" r="200" stroke="#fff" stroke-width="1" fill="none"/>
      <circle cx="0" cy="0" r="100" stroke="#fff" stroke-width="1" fill="none"/>
    </g>
    
    <g id="contact-icons">
      <g transform="translate(-300,-100)" opacity="0.9">
        <circle cx="0" cy="0" r="60" fill="#00334e" stroke="#e67e22" stroke-width="2"/>
        <path d="M-20,-15 L -20 15 L 20 15 L 20 -15 Z" stroke="#e67e22" stroke-width="1.5" fill="none"/>
        <path d="M-20,-15 L 0 0 L 20 -15" stroke="#e67e22" stroke-width="1.5" fill="none"/>
      </g>
      
      <g transform="translate(300,-100)" opacity="0.9">
        <circle cx="0" cy="0" r="60" fill="#00334e" stroke="#e67e22" stroke-width="2"/>
        <circle cx="0" cy="-10" r="20" stroke="#e67e22" stroke-width="1.5" fill="none"/>
        <path d="M -20 10 C -20 30 0 20 0 20 C 0 20 20 30 20 10" stroke="#e67e22" stroke-width="1.5" fill="none"/>
      </g>
      
      <g transform="translate(0,200)" opacity="0.9">
        <circle cx="0" cy="0" r="60" fill="#00334e" stroke="#e67e22" stroke-width="2"/>
        <path d="M-20,-20 L -20 20 L 20 20 L 20 -20" stroke="#e67e22" stroke-width="1.5" fill="none"/>
        <path d="M-10,-10 L -10 10 L 10 10 L 10 -10 L -10 -10" stroke="#e67e22" stroke-width="1.5" fill="none"/>
        <line x1="-15" y1="-15" x2="15" y2="-15" stroke="#e67e22" stroke-width="1.5"/>
      </g>
    </g>
    
    <g id="connection-lines" opacity="0.6">
      <path d="M-300,-100 Q -150 0 0 200" stroke="#e67e22" stroke-width="2" fill="none" stroke-dasharray="10,10"/>
      <path d="M300,-100 Q 150 0 0 200" stroke="#e67e22" stroke-width="2" fill="none" stroke-dasharray="10,10"/>
    </g>
  </g>
  <g transform="translate(100,100)">
    <g id="logo" opacity="0.9">
      <circle cx="50" cy="50" r="50" fill="#00334e" stroke="#e67e22" stroke-width="3"/>
      <circle cx="50" cy="50" r="25" fill="none" stroke="#e67e22" stroke-width="2" stroke-dasharray="3,3"/>
      <text x="50" y="50" text-anchor="middle" dy="6" fill="#fff" style="font-family: Arial, sans-serif; font-size: 16px; font-weight: bold;">IP</text>
    </g>
  </g>
  
  <g transform="translate(1700,900)">
    <g id="tech-icons" opacity="0.8">
      <g transform="translate(-100,0)">
        <rect x="-30" y="-30" width="60" height="60" rx="5" fill="#00334e" stroke="#e67e22" stroke-width="2"/>
        <rect x="-15" y="-15" width="30" height="20" fill="none" stroke="#e67e22" stroke-width="1.5"/>
        <line x1="-15" y1="15" x2="15" y2="15" stroke="#e67e22" stroke-width="1.5"/>
        <line x1="-5" y1="10" x2="5" y2="10" stroke="#e67e22" stroke-width="1.5"/>
      </g>
      
      <g transform="translate(0,-80)">
        <circle cx="0" cy="0" r="30" fill="#00334e" stroke="#e67e22" stroke-width="2"/>
        <path d="M-15,-15 L 15,15 M -15,15 L 15,-15" stroke="#e67e22" stroke-width="1.5"/>
      </g>
      
      <g>
        <circle cx="0" cy="0" r="30" fill="#00334e" stroke="#e67e22" stroke-width="2"/>
        <path d="M-15,0 L 15,0" stroke="#e67e22" stroke-width="1.5"/>
        <path d="M0,-15 L 0,15" stroke="#e67e22" stroke-width="1.5"/>
      </g>
      
      <g transform="translate(100,0)">
        <rect x="-30" y="-30" width="60" height="60" rx="5" fill="#00334e" stroke="#e67e22" stroke-width="2"/>
        <path d="M0,-15 L 15,0 L 0, 15 L -15,0 Z" stroke="#e67e22" stroke-width="1.5" fill="none"/>
      </g>
    </g>
  </g>
</svg>